<svg xmlns="http://www.w3.org/2000/svg" viewBox="0 0 408.92 407.9"><defs><style>.cls-1{fill:#67dbd8;}.cls-2{fill:#2c347a;}.cls-3{fill:#00baba;}</style></defs><title>Inner_Ring</title><g id="Layer_2" data-name="Layer 2"><g id="Inner_Ring"><path class="cls-1" d="M204.46,29.16A174.29,174.29,0,0,1,327.7,326.69,174.29,174.29,0,1,1,81.22,80.21a173.14,173.14,0,0,1,123.24-51m0-10c-101.78,0-184.29,82.51-184.29,184.29s82.51,184.28,184.29,184.28,184.29-82.5,184.29-184.28S306.24,19.16,204.46,19.16Z"/><path class="cls-2" d="M224.86,0V13.66l-40.8.76L183.49.05C80.42,10.55,0,97.61,0,203.45,0,316.37,91.54,407.9,204.46,407.9s204.46-91.53,204.46-204.45C408.92,97.42,328.2,10.24,224.86,0Zm-20.4,387.61c-101.71,0-184.17-82.45-184.17-184.16S102.75,19.28,204.46,19.28s184.16,82.46,184.16,184.17A184.16,184.16,0,0,1,204.46,387.61Z"/><path class="cls-3" d="M224.86,0V13.66l-40.8.76L183.49.05C80.42,10.55,0,97.61,0,203.45,0,316.37,91.54,407.9,204.46,407.9s204.46-91.53,204.46-204.45c0-106-80.72-193.21-184.06-203.45Zm-20.4,387.61c-101.71,0-184.17-82.45-184.17-184.16S102.75,19.28,204.46,19.28s184.16,82.46,184.16,184.17A184.16,184.16,0,0,1,204.46,387.61Z"/></g></g></svg>