<svg xmlns="http://www.w3.org/2000/svg" viewBox="0 0 718.79 718.79"><defs><style>.cls-1{fill:#00baba;}.cls-2{fill:#67dbd8;}</style></defs><title>Outer_Ring (2)</title><g id="Layer_2" data-name="Layer 2"><g id="Outer_Ring"><path class="cls-1" d="M359.57,0V15A344.27,344.27,0,0,1,607.94,597.78,343.23,343.23,0,0,1,366.58,703.71c-2.43,0-4.9.08-7.33.08A344.28,344.28,0,0,1,110.84,121,343.28,343.28,0,0,1,352.21,15.08c2.42-.05,4.89-.08,7.33-.08l0-15m0,0c-2.53,0-5.1,0-7.65.08C153.45,4.22-4.06,168.45.08,366.89c4.09,195.9,164.15,351.9,359.17,351.9,2.53,0,5.1,0,7.64-.08,198.45-4.14,356-168.37,351.82-366.82C714.62,156,554.55,0,359.54,0Z"/><path class="cls-2" d="M366.59,704.26c190.47-4,341.64-161.6,337.67-352.06S542.66,10.55,352.2,14.53,10.55,176.13,14.53,366.59,176.13,708.23,366.59,704.26ZM23.48,366.41C19.61,180.89,166.86,27.35,352.38,23.48s339,143.38,342.93,328.9C699,529.87,564.4,678.07,390.29,694l-.39-18.63-52.25,1.09.38,18.29C165.48,683.91,27.15,542.38,23.48,366.41Z"/></g></g></svg>