<svg xmlns="http://www.w3.org/2000/svg" viewBox="0 0 613.48 613.49"><defs><style>.cls-1{fill:#00baba;}.cls-2{fill:#67dbd8;}</style></defs><title>middle_Ring (2)</title><g id="Layer_2" data-name="Layer 2"><g id="middle_Ring"><path class="cls-1" d="M48.44,157.12,27.67,201.69l-7.73-3.6C-35.65,344.32,28.21,511.55,171.43,582c152,74.73,335.79,12.09,410.52-139.91S594,106.25,442,31.53C296.11-40.21,120.91,14.67,41,153.65ZM434.45,47c143.47,70.53,202.6,244,132.07,387.5S322.49,637.07,179,566.53-23.59,322.5,46.94,179,291-23.58,434.45,47Z"/><path class="cls-2" d="M179.05,566.45c143.38,70.49,316.85,11.22,387.44-132.38s11.6-317.15-131.78-387.64S117.86,35.21,47.27,178.81,35.67,496,179.05,566.45ZM429.63,56.76C567.31,124.45,624,291.11,556.18,429,492.57,558.39,342,616.47,209.91,567.22l9.32-21-49.11-23L160.38,543C40.14,468.64-6.16,313.55,57.58,183.88,125.38,46,291.94-10.93,429.63,56.76Z"/></g></g></svg>